<mxfile host="app.diagrams.net" modified="2023-05-25T20:44:06.611Z" agent="Mozilla/5.0 (Windows NT 10.0; Win64; x64) AppleWebKit/537.36 (KHTML, like Gecko) Chrome/112.0.0.0 Safari/537.36 OPR/98.0.0.0" etag="dZKyQjziqNJXFf36_621" version="21.3.4" type="github">
  <diagram name="Page-1" id="9c096ad6-e400-ecc8-3e38-643d2caac077">
    <mxGraphModel dx="1109" dy="672" grid="1" gridSize="10" guides="1" tooltips="1" connect="1" arrows="1" fold="1" page="1" pageScale="1.5" pageWidth="1169" pageHeight="826" background="none" math="0" shadow="0">
      <root>
        <mxCell id="0" style=";html=1;" />
        <mxCell id="1" style=";html=1;" parent="0" />
        <mxCell id="K06LqBxd0SO_TNTU_cGi-29" value="" style="shape=table;startSize=0;container=1;collapsible=0;childLayout=tableLayout;fontSize=16;swimlaneLine=1;" parent="1" vertex="1">
          <mxGeometry x="80" y="320" width="80" height="80" as="geometry" />
        </mxCell>
        <mxCell id="K06LqBxd0SO_TNTU_cGi-30" value="" style="shape=tableRow;horizontal=0;startSize=0;swimlaneHead=0;swimlaneBody=0;strokeColor=inherit;top=0;left=0;bottom=0;right=0;collapsible=0;dropTarget=0;fillColor=none;points=[[0,0.5],[1,0.5]];portConstraint=eastwest;fontSize=16;" parent="K06LqBxd0SO_TNTU_cGi-29" vertex="1">
          <mxGeometry width="80" height="40" as="geometry" />
        </mxCell>
        <mxCell id="K06LqBxd0SO_TNTU_cGi-31" value="0" style="shape=partialRectangle;html=1;whiteSpace=wrap;connectable=0;strokeColor=inherit;overflow=hidden;fillColor=none;top=0;left=0;bottom=0;right=0;pointerEvents=1;fontSize=16;" parent="K06LqBxd0SO_TNTU_cGi-30" vertex="1">
          <mxGeometry width="40" height="40" as="geometry">
            <mxRectangle width="40" height="40" as="alternateBounds" />
          </mxGeometry>
        </mxCell>
        <mxCell id="K06LqBxd0SO_TNTU_cGi-32" value="0" style="shape=partialRectangle;html=1;whiteSpace=wrap;connectable=0;strokeColor=inherit;overflow=hidden;fillColor=none;top=0;left=0;bottom=0;right=0;pointerEvents=1;fontSize=16;" parent="K06LqBxd0SO_TNTU_cGi-30" vertex="1">
          <mxGeometry x="40" width="40" height="40" as="geometry">
            <mxRectangle width="40" height="40" as="alternateBounds" />
          </mxGeometry>
        </mxCell>
        <mxCell id="K06LqBxd0SO_TNTU_cGi-34" value="" style="shape=tableRow;horizontal=0;startSize=0;swimlaneHead=0;swimlaneBody=0;strokeColor=inherit;top=0;left=0;bottom=0;right=0;collapsible=0;dropTarget=0;fillColor=none;points=[[0,0.5],[1,0.5]];portConstraint=eastwest;fontSize=16;" parent="K06LqBxd0SO_TNTU_cGi-29" vertex="1">
          <mxGeometry y="40" width="80" height="40" as="geometry" />
        </mxCell>
        <mxCell id="K06LqBxd0SO_TNTU_cGi-35" value="0" style="shape=partialRectangle;html=1;whiteSpace=wrap;connectable=0;strokeColor=inherit;overflow=hidden;fillColor=none;top=0;left=0;bottom=0;right=0;pointerEvents=1;fontSize=16;" parent="K06LqBxd0SO_TNTU_cGi-34" vertex="1">
          <mxGeometry width="40" height="40" as="geometry">
            <mxRectangle width="40" height="40" as="alternateBounds" />
          </mxGeometry>
        </mxCell>
        <mxCell id="K06LqBxd0SO_TNTU_cGi-36" value="1" style="shape=partialRectangle;html=1;whiteSpace=wrap;connectable=0;strokeColor=inherit;overflow=hidden;fillColor=none;top=0;left=0;bottom=0;right=0;pointerEvents=1;fontSize=16;" parent="K06LqBxd0SO_TNTU_cGi-34" vertex="1">
          <mxGeometry x="40" width="40" height="40" as="geometry">
            <mxRectangle width="40" height="40" as="alternateBounds" />
          </mxGeometry>
        </mxCell>
        <mxCell id="K06LqBxd0SO_TNTU_cGi-49" value="" style="endArrow=classic;html=1;rounded=0;exitX=1;exitY=0;exitDx=0;exitDy=0;exitPerimeter=0;fillColor=#a20025;strokeColor=#6F0000;strokeWidth=5;" parent="1" source="K06LqBxd0SO_TNTU_cGi-34" edge="1">
          <mxGeometry width="50" height="50" relative="1" as="geometry">
            <mxPoint x="530" y="410" as="sourcePoint" />
            <mxPoint x="240" y="360" as="targetPoint" />
          </mxGeometry>
        </mxCell>
        <mxCell id="b1_60gVV_PZFMIzlmbkC-8" value="&lt;span style=&quot;font-size: 16px;&quot;&gt;(A, 3)&lt;/span&gt;" style="edgeLabel;html=1;align=center;verticalAlign=middle;resizable=0;points=[];" parent="K06LqBxd0SO_TNTU_cGi-49" vertex="1" connectable="0">
          <mxGeometry x="0.275" y="1" relative="1" as="geometry">
            <mxPoint x="-11" y="-19" as="offset" />
          </mxGeometry>
        </mxCell>
        <mxCell id="b1_60gVV_PZFMIzlmbkC-1" value="" style="shape=table;startSize=0;container=1;collapsible=0;childLayout=tableLayout;fontSize=16;swimlaneLine=1;" parent="1" vertex="1">
          <mxGeometry x="240" y="320" width="80" height="80" as="geometry" />
        </mxCell>
        <mxCell id="b1_60gVV_PZFMIzlmbkC-2" value="" style="shape=tableRow;horizontal=0;startSize=0;swimlaneHead=0;swimlaneBody=0;strokeColor=inherit;top=0;left=0;bottom=0;right=0;collapsible=0;dropTarget=0;fillColor=none;points=[[0,0.5],[1,0.5]];portConstraint=eastwest;fontSize=16;" parent="b1_60gVV_PZFMIzlmbkC-1" vertex="1">
          <mxGeometry width="80" height="40" as="geometry" />
        </mxCell>
        <mxCell id="b1_60gVV_PZFMIzlmbkC-3" value="3" style="shape=partialRectangle;html=1;whiteSpace=wrap;connectable=0;strokeColor=inherit;overflow=hidden;fillColor=none;top=0;left=0;bottom=0;right=0;pointerEvents=1;fontSize=16;" parent="b1_60gVV_PZFMIzlmbkC-2" vertex="1">
          <mxGeometry width="40" height="40" as="geometry">
            <mxRectangle width="40" height="40" as="alternateBounds" />
          </mxGeometry>
        </mxCell>
        <mxCell id="b1_60gVV_PZFMIzlmbkC-4" value="3" style="shape=partialRectangle;html=1;whiteSpace=wrap;connectable=0;strokeColor=inherit;overflow=hidden;fillColor=none;top=0;left=0;bottom=0;right=0;pointerEvents=1;fontSize=16;" parent="b1_60gVV_PZFMIzlmbkC-2" vertex="1">
          <mxGeometry x="40" width="40" height="40" as="geometry">
            <mxRectangle width="40" height="40" as="alternateBounds" />
          </mxGeometry>
        </mxCell>
        <mxCell id="b1_60gVV_PZFMIzlmbkC-5" value="" style="shape=tableRow;horizontal=0;startSize=0;swimlaneHead=0;swimlaneBody=0;strokeColor=inherit;top=0;left=0;bottom=0;right=0;collapsible=0;dropTarget=0;fillColor=none;points=[[0,0.5],[1,0.5]];portConstraint=eastwest;fontSize=16;" parent="b1_60gVV_PZFMIzlmbkC-1" vertex="1">
          <mxGeometry y="40" width="80" height="40" as="geometry" />
        </mxCell>
        <mxCell id="b1_60gVV_PZFMIzlmbkC-6" value="0" style="shape=partialRectangle;html=1;whiteSpace=wrap;connectable=0;strokeColor=inherit;overflow=hidden;fillColor=none;top=0;left=0;bottom=0;right=0;pointerEvents=1;fontSize=16;" parent="b1_60gVV_PZFMIzlmbkC-5" vertex="1">
          <mxGeometry width="40" height="40" as="geometry">
            <mxRectangle width="40" height="40" as="alternateBounds" />
          </mxGeometry>
        </mxCell>
        <mxCell id="b1_60gVV_PZFMIzlmbkC-7" value="2" style="shape=partialRectangle;html=1;whiteSpace=wrap;connectable=0;strokeColor=inherit;overflow=hidden;fillColor=none;top=0;left=0;bottom=0;right=0;pointerEvents=1;fontSize=16;" parent="b1_60gVV_PZFMIzlmbkC-5" vertex="1">
          <mxGeometry x="40" width="40" height="40" as="geometry">
            <mxRectangle width="40" height="40" as="alternateBounds" />
          </mxGeometry>
        </mxCell>
        <mxCell id="b1_60gVV_PZFMIzlmbkC-9" value="" style="endArrow=classic;html=1;rounded=0;fillColor=#a20025;strokeColor=#6F0000;strokeWidth=5;" parent="1" edge="1">
          <mxGeometry width="50" height="50" relative="1" as="geometry">
            <mxPoint x="320" y="360" as="sourcePoint" />
            <mxPoint x="400" y="440" as="targetPoint" />
          </mxGeometry>
        </mxCell>
        <mxCell id="b1_60gVV_PZFMIzlmbkC-10" value="&lt;span style=&quot;font-size: 16px;&quot;&gt;(Î“, 6)&lt;/span&gt;" style="edgeLabel;html=1;align=center;verticalAlign=middle;resizable=0;points=[];" parent="b1_60gVV_PZFMIzlmbkC-9" vertex="1" connectable="0">
          <mxGeometry x="0.275" y="1" relative="1" as="geometry">
            <mxPoint x="-2" y="-31" as="offset" />
          </mxGeometry>
        </mxCell>
        <mxCell id="uwt7Ybb9qySLHsRS9HzB-1" value="" style="endArrow=classic;html=1;rounded=0;exitX=1.002;exitY=-0.008;exitDx=0;exitDy=0;exitPerimeter=0;fillColor=#a20025;strokeColor=#FFFFFF;strokeWidth=1;" parent="1" source="b1_60gVV_PZFMIzlmbkC-5" edge="1">
          <mxGeometry width="50" height="50" relative="1" as="geometry">
            <mxPoint x="180" y="380" as="sourcePoint" />
            <mxPoint x="400" y="280" as="targetPoint" />
          </mxGeometry>
        </mxCell>
        <mxCell id="uwt7Ybb9qySLHsRS9HzB-2" value="&lt;span style=&quot;font-size: 16px;&quot;&gt;(B, 2)&lt;/span&gt;" style="edgeLabel;html=1;align=center;verticalAlign=middle;resizable=0;points=[];" parent="uwt7Ybb9qySLHsRS9HzB-1" vertex="1" connectable="0">
          <mxGeometry x="0.275" y="1" relative="1" as="geometry">
            <mxPoint x="-20" y="-18" as="offset" />
          </mxGeometry>
        </mxCell>
        <mxCell id="uwt7Ybb9qySLHsRS9HzB-3" value="" style="shape=table;startSize=0;container=1;collapsible=0;childLayout=tableLayout;fontSize=16;swimlaneLine=1;" parent="1" vertex="1">
          <mxGeometry x="400" y="240" width="80" height="80" as="geometry" />
        </mxCell>
        <mxCell id="uwt7Ybb9qySLHsRS9HzB-4" value="" style="shape=tableRow;horizontal=0;startSize=0;swimlaneHead=0;swimlaneBody=0;strokeColor=inherit;top=0;left=0;bottom=0;right=0;collapsible=0;dropTarget=0;fillColor=none;points=[[0,0.5],[1,0.5]];portConstraint=eastwest;fontSize=16;" parent="uwt7Ybb9qySLHsRS9HzB-3" vertex="1">
          <mxGeometry width="80" height="40" as="geometry" />
        </mxCell>
        <mxCell id="uwt7Ybb9qySLHsRS9HzB-5" value="7" style="shape=partialRectangle;html=1;whiteSpace=wrap;connectable=0;strokeColor=inherit;overflow=hidden;fillColor=none;top=0;left=0;bottom=0;right=0;pointerEvents=1;fontSize=16;" parent="uwt7Ybb9qySLHsRS9HzB-4" vertex="1">
          <mxGeometry width="40" height="40" as="geometry">
            <mxRectangle width="40" height="40" as="alternateBounds" />
          </mxGeometry>
        </mxCell>
        <mxCell id="uwt7Ybb9qySLHsRS9HzB-6" value="5" style="shape=partialRectangle;html=1;whiteSpace=wrap;connectable=0;strokeColor=inherit;overflow=hidden;fillColor=none;top=0;left=0;bottom=0;right=0;pointerEvents=1;fontSize=16;" parent="uwt7Ybb9qySLHsRS9HzB-4" vertex="1">
          <mxGeometry x="40" width="40" height="40" as="geometry">
            <mxRectangle width="40" height="40" as="alternateBounds" />
          </mxGeometry>
        </mxCell>
        <mxCell id="uwt7Ybb9qySLHsRS9HzB-7" value="" style="shape=tableRow;horizontal=0;startSize=0;swimlaneHead=0;swimlaneBody=0;strokeColor=inherit;top=0;left=0;bottom=0;right=0;collapsible=0;dropTarget=0;fillColor=none;points=[[0,0.5],[1,0.5]];portConstraint=eastwest;fontSize=16;" parent="uwt7Ybb9qySLHsRS9HzB-3" vertex="1">
          <mxGeometry y="40" width="80" height="40" as="geometry" />
        </mxCell>
        <mxCell id="uwt7Ybb9qySLHsRS9HzB-8" value="2" style="shape=partialRectangle;html=1;whiteSpace=wrap;connectable=0;strokeColor=inherit;overflow=hidden;fillColor=none;top=0;left=0;bottom=0;right=0;pointerEvents=1;fontSize=16;" parent="uwt7Ybb9qySLHsRS9HzB-7" vertex="1">
          <mxGeometry width="40" height="40" as="geometry">
            <mxRectangle width="40" height="40" as="alternateBounds" />
          </mxGeometry>
        </mxCell>
        <mxCell id="uwt7Ybb9qySLHsRS9HzB-9" value="3" style="shape=partialRectangle;html=1;whiteSpace=wrap;connectable=0;strokeColor=inherit;overflow=hidden;fillColor=none;top=0;left=0;bottom=0;right=0;pointerEvents=1;fontSize=16;" parent="uwt7Ybb9qySLHsRS9HzB-7" vertex="1">
          <mxGeometry x="40" width="40" height="40" as="geometry">
            <mxRectangle width="40" height="40" as="alternateBounds" />
          </mxGeometry>
        </mxCell>
        <mxCell id="uwt7Ybb9qySLHsRS9HzB-10" value="" style="shape=table;startSize=0;container=1;collapsible=0;childLayout=tableLayout;fontSize=16;swimlaneLine=1;" parent="1" vertex="1">
          <mxGeometry x="400" y="400" width="80" height="80" as="geometry" />
        </mxCell>
        <mxCell id="uwt7Ybb9qySLHsRS9HzB-11" value="" style="shape=tableRow;horizontal=0;startSize=0;swimlaneHead=0;swimlaneBody=0;strokeColor=inherit;top=0;left=0;bottom=0;right=0;collapsible=0;dropTarget=0;fillColor=none;points=[[0,0.5],[1,0.5]];portConstraint=eastwest;fontSize=16;" parent="uwt7Ybb9qySLHsRS9HzB-10" vertex="1">
          <mxGeometry width="80" height="40" as="geometry" />
        </mxCell>
        <mxCell id="uwt7Ybb9qySLHsRS9HzB-12" value="9" style="shape=partialRectangle;html=1;whiteSpace=wrap;connectable=0;strokeColor=inherit;overflow=hidden;fillColor=none;top=0;left=0;bottom=0;right=0;pointerEvents=1;fontSize=16;" parent="uwt7Ybb9qySLHsRS9HzB-11" vertex="1">
          <mxGeometry width="40" height="40" as="geometry">
            <mxRectangle width="40" height="40" as="alternateBounds" />
          </mxGeometry>
        </mxCell>
        <mxCell id="uwt7Ybb9qySLHsRS9HzB-13" value="9" style="shape=partialRectangle;html=1;whiteSpace=wrap;connectable=0;strokeColor=inherit;overflow=hidden;fillColor=none;top=0;left=0;bottom=0;right=0;pointerEvents=1;fontSize=16;" parent="uwt7Ybb9qySLHsRS9HzB-11" vertex="1">
          <mxGeometry x="40" width="40" height="40" as="geometry">
            <mxRectangle width="40" height="40" as="alternateBounds" />
          </mxGeometry>
        </mxCell>
        <mxCell id="uwt7Ybb9qySLHsRS9HzB-14" value="" style="shape=tableRow;horizontal=0;startSize=0;swimlaneHead=0;swimlaneBody=0;strokeColor=inherit;top=0;left=0;bottom=0;right=0;collapsible=0;dropTarget=0;fillColor=none;points=[[0,0.5],[1,0.5]];portConstraint=eastwest;fontSize=16;" parent="uwt7Ybb9qySLHsRS9HzB-10" vertex="1">
          <mxGeometry y="40" width="80" height="40" as="geometry" />
        </mxCell>
        <mxCell id="uwt7Ybb9qySLHsRS9HzB-15" value="0" style="shape=partialRectangle;html=1;whiteSpace=wrap;connectable=0;strokeColor=inherit;overflow=hidden;fillColor=none;top=0;left=0;bottom=0;right=0;pointerEvents=1;fontSize=16;" parent="uwt7Ybb9qySLHsRS9HzB-14" vertex="1">
          <mxGeometry width="40" height="40" as="geometry">
            <mxRectangle width="40" height="40" as="alternateBounds" />
          </mxGeometry>
        </mxCell>
        <mxCell id="uwt7Ybb9qySLHsRS9HzB-16" value="4" style="shape=partialRectangle;html=1;whiteSpace=wrap;connectable=0;strokeColor=inherit;overflow=hidden;fillColor=none;top=0;left=0;bottom=0;right=0;pointerEvents=1;fontSize=16;" parent="uwt7Ybb9qySLHsRS9HzB-14" vertex="1">
          <mxGeometry x="40" width="40" height="40" as="geometry">
            <mxRectangle width="40" height="40" as="alternateBounds" />
          </mxGeometry>
        </mxCell>
        <mxCell id="uwt7Ybb9qySLHsRS9HzB-18" value="" style="endArrow=classic;html=1;rounded=0;fillColor=#a20025;strokeColor=#FFFFFF;strokeWidth=1;" parent="1" edge="1">
          <mxGeometry width="50" height="50" relative="1" as="geometry">
            <mxPoint x="480" y="280" as="sourcePoint" />
            <mxPoint x="560" y="280" as="targetPoint" />
          </mxGeometry>
        </mxCell>
        <mxCell id="uwt7Ybb9qySLHsRS9HzB-19" value="&lt;span style=&quot;font-size: 16px;&quot;&gt;(Î–, 3)&lt;/span&gt;" style="edgeLabel;html=1;align=center;verticalAlign=middle;resizable=0;points=[];" parent="uwt7Ybb9qySLHsRS9HzB-18" vertex="1" connectable="0">
          <mxGeometry x="0.275" y="1" relative="1" as="geometry">
            <mxPoint x="-11" y="-19" as="offset" />
          </mxGeometry>
        </mxCell>
        <mxCell id="uwt7Ybb9qySLHsRS9HzB-27" value="" style="shape=table;startSize=0;container=1;collapsible=0;childLayout=tableLayout;fontSize=16;swimlaneLine=1;" parent="1" vertex="1">
          <mxGeometry x="560" y="240" width="80" height="80" as="geometry" />
        </mxCell>
        <mxCell id="uwt7Ybb9qySLHsRS9HzB-28" value="" style="shape=tableRow;horizontal=0;startSize=0;swimlaneHead=0;swimlaneBody=0;strokeColor=inherit;top=0;left=0;bottom=0;right=0;collapsible=0;dropTarget=0;fillColor=none;points=[[0,0.5],[1,0.5]];portConstraint=eastwest;fontSize=16;" parent="uwt7Ybb9qySLHsRS9HzB-27" vertex="1">
          <mxGeometry width="80" height="40" as="geometry" />
        </mxCell>
        <mxCell id="uwt7Ybb9qySLHsRS9HzB-29" value="10" style="shape=partialRectangle;html=1;whiteSpace=wrap;connectable=0;strokeColor=inherit;overflow=hidden;fillColor=none;top=0;left=0;bottom=0;right=0;pointerEvents=1;fontSize=16;" parent="uwt7Ybb9qySLHsRS9HzB-28" vertex="1">
          <mxGeometry width="40" height="40" as="geometry">
            <mxRectangle width="40" height="40" as="alternateBounds" />
          </mxGeometry>
        </mxCell>
        <mxCell id="uwt7Ybb9qySLHsRS9HzB-30" value="10" style="shape=partialRectangle;html=1;whiteSpace=wrap;connectable=0;strokeColor=inherit;overflow=hidden;fillColor=none;top=0;left=0;bottom=0;right=0;pointerEvents=1;fontSize=16;" parent="uwt7Ybb9qySLHsRS9HzB-28" vertex="1">
          <mxGeometry x="40" width="40" height="40" as="geometry">
            <mxRectangle width="40" height="40" as="alternateBounds" />
          </mxGeometry>
        </mxCell>
        <mxCell id="uwt7Ybb9qySLHsRS9HzB-31" value="" style="shape=tableRow;horizontal=0;startSize=0;swimlaneHead=0;swimlaneBody=0;strokeColor=inherit;top=0;left=0;bottom=0;right=0;collapsible=0;dropTarget=0;fillColor=none;points=[[0,0.5],[1,0.5]];portConstraint=eastwest;fontSize=16;" parent="uwt7Ybb9qySLHsRS9HzB-27" vertex="1">
          <mxGeometry y="40" width="80" height="40" as="geometry" />
        </mxCell>
        <mxCell id="uwt7Ybb9qySLHsRS9HzB-32" value="0" style="shape=partialRectangle;html=1;whiteSpace=wrap;connectable=0;strokeColor=inherit;overflow=hidden;fillColor=none;top=0;left=0;bottom=0;right=0;pointerEvents=1;fontSize=16;" parent="uwt7Ybb9qySLHsRS9HzB-31" vertex="1">
          <mxGeometry width="40" height="40" as="geometry">
            <mxRectangle width="40" height="40" as="alternateBounds" />
          </mxGeometry>
        </mxCell>
        <mxCell id="uwt7Ybb9qySLHsRS9HzB-33" value="5" style="shape=partialRectangle;html=1;whiteSpace=wrap;connectable=0;strokeColor=inherit;overflow=hidden;fillColor=none;top=0;left=0;bottom=0;right=0;pointerEvents=1;fontSize=16;" parent="uwt7Ybb9qySLHsRS9HzB-31" vertex="1">
          <mxGeometry x="40" width="40" height="40" as="geometry">
            <mxRectangle width="40" height="40" as="alternateBounds" />
          </mxGeometry>
        </mxCell>
        <mxCell id="uwt7Ybb9qySLHsRS9HzB-34" value="" style="endArrow=classic;html=1;rounded=0;fillColor=#a20025;strokeColor=#6F0000;strokeWidth=5;exitX=1.004;exitY=-0.005;exitDx=0;exitDy=0;exitPerimeter=0;entryX=-0.004;entryY=-0.005;entryDx=0;entryDy=0;entryPerimeter=0;" parent="1" source="uwt7Ybb9qySLHsRS9HzB-14" target="uwt7Ybb9qySLHsRS9HzB-31" edge="1">
          <mxGeometry width="50" height="50" relative="1" as="geometry">
            <mxPoint x="490" y="290" as="sourcePoint" />
            <mxPoint x="570" y="290" as="targetPoint" />
          </mxGeometry>
        </mxCell>
        <mxCell id="uwt7Ybb9qySLHsRS9HzB-35" value="&lt;span style=&quot;font-size: 16px;&quot;&gt;(Î˜, 1)&lt;/span&gt;" style="edgeLabel;html=1;align=center;verticalAlign=middle;resizable=0;points=[];" parent="uwt7Ybb9qySLHsRS9HzB-34" vertex="1" connectable="0">
          <mxGeometry x="0.275" y="1" relative="1" as="geometry">
            <mxPoint x="-30" y="7" as="offset" />
          </mxGeometry>
        </mxCell>
        <mxCell id="uwt7Ybb9qySLHsRS9HzB-36" value="" style="endArrow=classic;html=1;rounded=0;fillColor=#a20025;strokeColor=#6F0000;strokeWidth=5;" parent="1" edge="1">
          <mxGeometry width="50" height="50" relative="1" as="geometry">
            <mxPoint x="640" y="279.76" as="sourcePoint" />
            <mxPoint x="720" y="279.76" as="targetPoint" />
          </mxGeometry>
        </mxCell>
        <mxCell id="uwt7Ybb9qySLHsRS9HzB-37" value="&lt;span style=&quot;font-size: 16px;&quot;&gt;(Î™, 2)&lt;/span&gt;" style="edgeLabel;html=1;align=center;verticalAlign=middle;resizable=0;points=[];" parent="uwt7Ybb9qySLHsRS9HzB-36" vertex="1" connectable="0">
          <mxGeometry x="0.275" y="1" relative="1" as="geometry">
            <mxPoint x="-11" y="-19" as="offset" />
          </mxGeometry>
        </mxCell>
        <mxCell id="uwt7Ybb9qySLHsRS9HzB-38" value="" style="shape=table;startSize=0;container=1;collapsible=0;childLayout=tableLayout;fontSize=16;swimlaneLine=1;" parent="1" vertex="1">
          <mxGeometry x="720" y="240" width="80" height="80" as="geometry" />
        </mxCell>
        <mxCell id="uwt7Ybb9qySLHsRS9HzB-39" value="" style="shape=tableRow;horizontal=0;startSize=0;swimlaneHead=0;swimlaneBody=0;strokeColor=inherit;top=0;left=0;bottom=0;right=0;collapsible=0;dropTarget=0;fillColor=none;points=[[0,0.5],[1,0.5]];portConstraint=eastwest;fontSize=16;" parent="uwt7Ybb9qySLHsRS9HzB-38" vertex="1">
          <mxGeometry width="80" height="40" as="geometry" />
        </mxCell>
        <mxCell id="uwt7Ybb9qySLHsRS9HzB-40" value="12" style="shape=partialRectangle;html=1;whiteSpace=wrap;connectable=0;strokeColor=inherit;overflow=hidden;fillColor=none;top=0;left=0;bottom=0;right=0;pointerEvents=1;fontSize=16;" parent="uwt7Ybb9qySLHsRS9HzB-39" vertex="1">
          <mxGeometry width="40" height="40" as="geometry">
            <mxRectangle width="40" height="40" as="alternateBounds" />
          </mxGeometry>
        </mxCell>
        <mxCell id="uwt7Ybb9qySLHsRS9HzB-41" value="12" style="shape=partialRectangle;html=1;whiteSpace=wrap;connectable=0;strokeColor=inherit;overflow=hidden;fillColor=none;top=0;left=0;bottom=0;right=0;pointerEvents=1;fontSize=16;" parent="uwt7Ybb9qySLHsRS9HzB-39" vertex="1">
          <mxGeometry x="40" width="40" height="40" as="geometry">
            <mxRectangle width="40" height="40" as="alternateBounds" />
          </mxGeometry>
        </mxCell>
        <mxCell id="uwt7Ybb9qySLHsRS9HzB-42" value="" style="shape=tableRow;horizontal=0;startSize=0;swimlaneHead=0;swimlaneBody=0;strokeColor=inherit;top=0;left=0;bottom=0;right=0;collapsible=0;dropTarget=0;fillColor=none;points=[[0,0.5],[1,0.5]];portConstraint=eastwest;fontSize=16;" parent="uwt7Ybb9qySLHsRS9HzB-38" vertex="1">
          <mxGeometry y="40" width="80" height="40" as="geometry" />
        </mxCell>
        <mxCell id="uwt7Ybb9qySLHsRS9HzB-43" value="0" style="shape=partialRectangle;html=1;whiteSpace=wrap;connectable=0;strokeColor=inherit;overflow=hidden;fillColor=none;top=0;left=0;bottom=0;right=0;pointerEvents=1;fontSize=16;" parent="uwt7Ybb9qySLHsRS9HzB-42" vertex="1">
          <mxGeometry width="40" height="40" as="geometry">
            <mxRectangle width="40" height="40" as="alternateBounds" />
          </mxGeometry>
        </mxCell>
        <mxCell id="uwt7Ybb9qySLHsRS9HzB-44" value="6" style="shape=partialRectangle;html=1;whiteSpace=wrap;connectable=0;strokeColor=inherit;overflow=hidden;fillColor=none;top=0;left=0;bottom=0;right=0;pointerEvents=1;fontSize=16;" parent="uwt7Ybb9qySLHsRS9HzB-42" vertex="1">
          <mxGeometry x="40" width="40" height="40" as="geometry">
            <mxRectangle width="40" height="40" as="alternateBounds" />
          </mxGeometry>
        </mxCell>
        <mxCell id="uwt7Ybb9qySLHsRS9HzB-45" value="" style="shape=table;startSize=0;container=1;collapsible=0;childLayout=tableLayout;fontSize=16;swimlaneLine=1;" parent="1" vertex="1">
          <mxGeometry x="720" y="639.26" width="80" height="80" as="geometry" />
        </mxCell>
        <mxCell id="uwt7Ybb9qySLHsRS9HzB-46" value="" style="shape=tableRow;horizontal=0;startSize=0;swimlaneHead=0;swimlaneBody=0;strokeColor=inherit;top=0;left=0;bottom=0;right=0;collapsible=0;dropTarget=0;fillColor=none;points=[[0,0.5],[1,0.5]];portConstraint=eastwest;fontSize=16;" parent="uwt7Ybb9qySLHsRS9HzB-45" vertex="1">
          <mxGeometry width="80" height="40" as="geometry" />
        </mxCell>
        <mxCell id="uwt7Ybb9qySLHsRS9HzB-47" value="14" style="shape=partialRectangle;html=1;whiteSpace=wrap;connectable=0;strokeColor=inherit;overflow=hidden;fillColor=none;top=0;left=0;bottom=0;right=0;pointerEvents=1;fontSize=16;" parent="uwt7Ybb9qySLHsRS9HzB-46" vertex="1">
          <mxGeometry width="40" height="40" as="geometry">
            <mxRectangle width="40" height="40" as="alternateBounds" />
          </mxGeometry>
        </mxCell>
        <mxCell id="uwt7Ybb9qySLHsRS9HzB-48" value="14" style="shape=partialRectangle;html=1;whiteSpace=wrap;connectable=0;strokeColor=inherit;overflow=hidden;fillColor=none;top=0;left=0;bottom=0;right=0;pointerEvents=1;fontSize=16;" parent="uwt7Ybb9qySLHsRS9HzB-46" vertex="1">
          <mxGeometry x="40" width="40" height="40" as="geometry">
            <mxRectangle width="40" height="40" as="alternateBounds" />
          </mxGeometry>
        </mxCell>
        <mxCell id="uwt7Ybb9qySLHsRS9HzB-49" value="" style="shape=tableRow;horizontal=0;startSize=0;swimlaneHead=0;swimlaneBody=0;strokeColor=inherit;top=0;left=0;bottom=0;right=0;collapsible=0;dropTarget=0;fillColor=none;points=[[0,0.5],[1,0.5]];portConstraint=eastwest;fontSize=16;" parent="uwt7Ybb9qySLHsRS9HzB-45" vertex="1">
          <mxGeometry y="40" width="80" height="40" as="geometry" />
        </mxCell>
        <mxCell id="uwt7Ybb9qySLHsRS9HzB-50" value="0" style="shape=partialRectangle;html=1;whiteSpace=wrap;connectable=0;strokeColor=inherit;overflow=hidden;fillColor=none;top=0;left=0;bottom=0;right=0;pointerEvents=1;fontSize=16;" parent="uwt7Ybb9qySLHsRS9HzB-49" vertex="1">
          <mxGeometry width="40" height="40" as="geometry">
            <mxRectangle width="40" height="40" as="alternateBounds" />
          </mxGeometry>
        </mxCell>
        <mxCell id="uwt7Ybb9qySLHsRS9HzB-51" value="8" style="shape=partialRectangle;html=1;whiteSpace=wrap;connectable=0;strokeColor=inherit;overflow=hidden;fillColor=none;top=0;left=0;bottom=0;right=0;pointerEvents=1;fontSize=16;" parent="uwt7Ybb9qySLHsRS9HzB-49" vertex="1">
          <mxGeometry x="40" width="40" height="40" as="geometry">
            <mxRectangle width="40" height="40" as="alternateBounds" />
          </mxGeometry>
        </mxCell>
        <mxCell id="uwt7Ybb9qySLHsRS9HzB-52" value="" style="endArrow=classic;html=1;rounded=0;fillColor=#a20025;strokeColor=#6F0000;strokeWidth=5;exitX=0.504;exitY=0.995;exitDx=0;exitDy=0;exitPerimeter=0;entryX=0.5;entryY=-0.005;entryDx=0;entryDy=0;entryPerimeter=0;" parent="1" source="uwt7Ybb9qySLHsRS9HzB-42" target="uwt7Ybb9qySLHsRS9HzB-46" edge="1">
          <mxGeometry width="50" height="50" relative="1" as="geometry">
            <mxPoint x="650" y="289.76" as="sourcePoint" />
            <mxPoint x="730" y="289.76" as="targetPoint" />
          </mxGeometry>
        </mxCell>
        <mxCell id="uwt7Ybb9qySLHsRS9HzB-53" value="&lt;span style=&quot;font-size: 16px;&quot;&gt;(Îš, 2)&lt;/span&gt;" style="edgeLabel;html=1;align=center;verticalAlign=middle;resizable=0;points=[];" parent="uwt7Ybb9qySLHsRS9HzB-52" vertex="1" connectable="0">
          <mxGeometry x="0.275" y="1" relative="1" as="geometry">
            <mxPoint x="29" y="-33" as="offset" />
          </mxGeometry>
        </mxCell>
        <mxCell id="uwt7Ybb9qySLHsRS9HzB-54" value="" style="endArrow=classic;html=1;rounded=0;fillColor=#a20025;strokeColor=#FFFFFF;strokeWidth=1;entryX=0.001;entryY=0.998;entryDx=0;entryDy=0;entryPerimeter=0;exitX=1;exitY=0.017;exitDx=0;exitDy=0;exitPerimeter=0;" parent="1" target="uwt7Ybb9qySLHsRS9HzB-46" edge="1" source="b1_60gVV_PZFMIzlmbkC-5">
          <mxGeometry width="50" height="50" relative="1" as="geometry">
            <mxPoint x="320" y="370" as="sourcePoint" />
            <mxPoint x="770" y="570" as="targetPoint" />
            <Array as="points">
              <mxPoint x="360" y="630" />
            </Array>
          </mxGeometry>
        </mxCell>
        <mxCell id="uwt7Ybb9qySLHsRS9HzB-55" value="&lt;span style=&quot;font-size: 16px;&quot;&gt;(Î•, 3)&lt;/span&gt;" style="edgeLabel;html=1;align=center;verticalAlign=middle;resizable=0;points=[];" parent="uwt7Ybb9qySLHsRS9HzB-54" vertex="1" connectable="0">
          <mxGeometry x="0.275" y="1" relative="1" as="geometry">
            <mxPoint x="-102" y="-37" as="offset" />
          </mxGeometry>
        </mxCell>
        <mxCell id="uwt7Ybb9qySLHsRS9HzB-56" value="" style="shape=table;startSize=0;container=1;collapsible=0;childLayout=tableLayout;fontSize=16;swimlaneLine=1;" parent="1" vertex="1">
          <mxGeometry x="560" y="400" width="80" height="80" as="geometry" />
        </mxCell>
        <mxCell id="uwt7Ybb9qySLHsRS9HzB-57" value="" style="shape=tableRow;horizontal=0;startSize=0;swimlaneHead=0;swimlaneBody=0;strokeColor=inherit;top=0;left=0;bottom=0;right=0;collapsible=0;dropTarget=0;fillColor=none;points=[[0,0.5],[1,0.5]];portConstraint=eastwest;fontSize=16;" parent="uwt7Ybb9qySLHsRS9HzB-56" vertex="1">
          <mxGeometry width="80" height="40" as="geometry" />
        </mxCell>
        <mxCell id="uwt7Ybb9qySLHsRS9HzB-58" value="14" style="shape=partialRectangle;html=1;whiteSpace=wrap;connectable=0;strokeColor=inherit;overflow=hidden;fillColor=none;top=0;left=0;bottom=0;right=0;pointerEvents=1;fontSize=16;" parent="uwt7Ybb9qySLHsRS9HzB-57" vertex="1">
          <mxGeometry width="40" height="40" as="geometry">
            <mxRectangle width="40" height="40" as="alternateBounds" />
          </mxGeometry>
        </mxCell>
        <mxCell id="uwt7Ybb9qySLHsRS9HzB-59" value="11" style="shape=partialRectangle;html=1;whiteSpace=wrap;connectable=0;strokeColor=inherit;overflow=hidden;fillColor=none;top=0;left=0;bottom=0;right=0;pointerEvents=1;fontSize=16;" parent="uwt7Ybb9qySLHsRS9HzB-57" vertex="1">
          <mxGeometry x="40" width="40" height="40" as="geometry">
            <mxRectangle width="40" height="40" as="alternateBounds" />
          </mxGeometry>
        </mxCell>
        <mxCell id="uwt7Ybb9qySLHsRS9HzB-60" value="" style="shape=tableRow;horizontal=0;startSize=0;swimlaneHead=0;swimlaneBody=0;strokeColor=inherit;top=0;left=0;bottom=0;right=0;collapsible=0;dropTarget=0;fillColor=none;points=[[0,0.5],[1,0.5]];portConstraint=eastwest;fontSize=16;" parent="uwt7Ybb9qySLHsRS9HzB-56" vertex="1">
          <mxGeometry y="40" width="80" height="40" as="geometry" />
        </mxCell>
        <mxCell id="uwt7Ybb9qySLHsRS9HzB-61" value="3" style="shape=partialRectangle;html=1;whiteSpace=wrap;connectable=0;strokeColor=inherit;overflow=hidden;fillColor=none;top=0;left=0;bottom=0;right=0;pointerEvents=1;fontSize=16;" parent="uwt7Ybb9qySLHsRS9HzB-60" vertex="1">
          <mxGeometry width="40" height="40" as="geometry">
            <mxRectangle width="40" height="40" as="alternateBounds" />
          </mxGeometry>
        </mxCell>
        <mxCell id="uwt7Ybb9qySLHsRS9HzB-62" value="7" style="shape=partialRectangle;html=1;whiteSpace=wrap;connectable=0;strokeColor=inherit;overflow=hidden;fillColor=none;top=0;left=0;bottom=0;right=0;pointerEvents=1;fontSize=16;" parent="uwt7Ybb9qySLHsRS9HzB-60" vertex="1">
          <mxGeometry x="40" width="40" height="40" as="geometry">
            <mxRectangle width="40" height="40" as="alternateBounds" />
          </mxGeometry>
        </mxCell>
        <mxCell id="uwt7Ybb9qySLHsRS9HzB-63" value="" style="endArrow=classic;html=1;rounded=0;fillColor=#a20025;strokeColor=#FFFFFF;strokeWidth=1;" parent="1" edge="1">
          <mxGeometry width="50" height="50" relative="1" as="geometry">
            <mxPoint x="480" y="439.65999999999997" as="sourcePoint" />
            <mxPoint x="560" y="439.65999999999997" as="targetPoint" />
          </mxGeometry>
        </mxCell>
        <mxCell id="uwt7Ybb9qySLHsRS9HzB-64" value="&lt;span style=&quot;font-size: 16px;&quot;&gt;(Î”, 2)&lt;/span&gt;" style="edgeLabel;html=1;align=center;verticalAlign=middle;resizable=0;points=[];" parent="uwt7Ybb9qySLHsRS9HzB-63" vertex="1" connectable="0">
          <mxGeometry x="0.275" y="1" relative="1" as="geometry">
            <mxPoint x="-1" y="-19" as="offset" />
          </mxGeometry>
        </mxCell>
        <mxCell id="uwt7Ybb9qySLHsRS9HzB-65" value="" style="endArrow=classic;html=1;rounded=0;fillColor=#a20025;strokeColor=#6F0000;strokeWidth=5;" parent="1" edge="1">
          <mxGeometry width="50" height="50" relative="1" as="geometry">
            <mxPoint x="480" y="440" as="sourcePoint" />
            <mxPoint x="720" y="680" as="targetPoint" />
          </mxGeometry>
        </mxCell>
        <mxCell id="uwt7Ybb9qySLHsRS9HzB-66" value="&lt;span style=&quot;font-size: 16px;&quot;&gt;(Î—, 5)&lt;/span&gt;" style="edgeLabel;html=1;align=center;verticalAlign=middle;resizable=0;points=[];" parent="uwt7Ybb9qySLHsRS9HzB-65" vertex="1" connectable="0">
          <mxGeometry x="0.275" y="1" relative="1" as="geometry">
            <mxPoint x="-4" y="-42" as="offset" />
          </mxGeometry>
        </mxCell>
        <mxCell id="uwt7Ybb9qySLHsRS9HzB-67" value="" style="endArrow=classic;html=1;rounded=0;fillColor=#a20025;strokeColor=#FFFFFF;strokeWidth=1;" parent="1" edge="1">
          <mxGeometry width="50" height="50" relative="1" as="geometry">
            <mxPoint x="640" y="440" as="sourcePoint" />
            <mxPoint x="760" y="640" as="targetPoint" />
          </mxGeometry>
        </mxCell>
        <mxCell id="uwt7Ybb9qySLHsRS9HzB-68" value="&lt;span style=&quot;font-size: 16px;&quot;&gt;(D, 0)&lt;/span&gt;" style="edgeLabel;html=1;align=center;verticalAlign=middle;resizable=0;points=[];" parent="uwt7Ybb9qySLHsRS9HzB-67" vertex="1" connectable="0">
          <mxGeometry x="0.275" y="1" relative="1" as="geometry">
            <mxPoint x="-7" y="-67" as="offset" />
          </mxGeometry>
        </mxCell>
        <mxCell id="uwt7Ybb9qySLHsRS9HzB-69" value="Î£(i,j)" style="shape=table;startSize=40;container=1;collapsible=0;childLayout=tableLayout;strokeColor=default;fontSize=16;" parent="1" vertex="1">
          <mxGeometry x="80" y="480" width="160" height="440.0000000000002" as="geometry" />
        </mxCell>
        <mxCell id="uwt7Ybb9qySLHsRS9HzB-70" value="" style="shape=tableRow;horizontal=0;startSize=0;swimlaneHead=0;swimlaneBody=0;strokeColor=inherit;top=0;left=0;bottom=0;right=0;collapsible=0;dropTarget=0;fillColor=none;points=[[0,0.5],[1,0.5]];portConstraint=eastwest;fontSize=16;" parent="uwt7Ybb9qySLHsRS9HzB-69" vertex="1">
          <mxGeometry y="40" width="160" height="39" as="geometry" />
        </mxCell>
        <mxCell id="uwt7Ybb9qySLHsRS9HzB-71" value="A" style="shape=partialRectangle;html=1;whiteSpace=wrap;connectable=0;strokeColor=inherit;overflow=hidden;fillColor=none;top=0;left=0;bottom=0;right=0;pointerEvents=1;fontSize=16;" parent="uwt7Ybb9qySLHsRS9HzB-70" vertex="1">
          <mxGeometry width="40" height="39" as="geometry">
            <mxRectangle width="40" height="39" as="alternateBounds" />
          </mxGeometry>
        </mxCell>
        <mxCell id="uwt7Ybb9qySLHsRS9HzB-72" value="(1, 2)" style="shape=partialRectangle;html=1;whiteSpace=wrap;connectable=0;strokeColor=inherit;overflow=hidden;fillColor=none;top=0;left=0;bottom=0;right=0;pointerEvents=1;fontSize=16;" parent="uwt7Ybb9qySLHsRS9HzB-70" vertex="1">
          <mxGeometry x="40" width="80" height="39" as="geometry">
            <mxRectangle width="80" height="39" as="alternateBounds" />
          </mxGeometry>
        </mxCell>
        <mxCell id="uwt7Ybb9qySLHsRS9HzB-73" value="0" style="shape=partialRectangle;html=1;whiteSpace=wrap;connectable=0;strokeColor=inherit;overflow=hidden;fillColor=none;top=0;left=0;bottom=0;right=0;pointerEvents=1;fontSize=16;" parent="uwt7Ybb9qySLHsRS9HzB-70" vertex="1">
          <mxGeometry x="120" width="40" height="39" as="geometry">
            <mxRectangle width="40" height="39" as="alternateBounds" />
          </mxGeometry>
        </mxCell>
        <mxCell id="uwt7Ybb9qySLHsRS9HzB-74" value="" style="shape=tableRow;horizontal=0;startSize=0;swimlaneHead=0;swimlaneBody=0;strokeColor=inherit;top=0;left=0;bottom=0;right=0;collapsible=0;dropTarget=0;fillColor=none;points=[[0,0.5],[1,0.5]];portConstraint=eastwest;fontSize=16;" parent="uwt7Ybb9qySLHsRS9HzB-69" vertex="1">
          <mxGeometry y="79" width="160" height="41" as="geometry" />
        </mxCell>
        <mxCell id="uwt7Ybb9qySLHsRS9HzB-75" value="B" style="shape=partialRectangle;html=1;whiteSpace=wrap;connectable=0;strokeColor=inherit;overflow=hidden;fillColor=none;top=0;left=0;bottom=0;right=0;pointerEvents=1;fontSize=16;" parent="uwt7Ybb9qySLHsRS9HzB-74" vertex="1">
          <mxGeometry width="40" height="41" as="geometry">
            <mxRectangle width="40" height="41" as="alternateBounds" />
          </mxGeometry>
        </mxCell>
        <mxCell id="uwt7Ybb9qySLHsRS9HzB-76" value="(2, 3)" style="shape=partialRectangle;html=1;whiteSpace=wrap;connectable=0;strokeColor=inherit;overflow=hidden;fillColor=none;top=0;left=0;bottom=0;right=0;pointerEvents=1;fontSize=16;" parent="uwt7Ybb9qySLHsRS9HzB-74" vertex="1">
          <mxGeometry x="40" width="80" height="41" as="geometry">
            <mxRectangle width="80" height="41" as="alternateBounds" />
          </mxGeometry>
        </mxCell>
        <mxCell id="uwt7Ybb9qySLHsRS9HzB-77" value="2" style="shape=partialRectangle;html=1;whiteSpace=wrap;connectable=0;strokeColor=inherit;overflow=hidden;fillColor=none;top=0;left=0;bottom=0;right=0;pointerEvents=1;fontSize=16;" parent="uwt7Ybb9qySLHsRS9HzB-74" vertex="1">
          <mxGeometry x="120" width="40" height="41" as="geometry">
            <mxRectangle width="40" height="41" as="alternateBounds" />
          </mxGeometry>
        </mxCell>
        <mxCell id="uwt7Ybb9qySLHsRS9HzB-78" value="" style="shape=tableRow;horizontal=0;startSize=0;swimlaneHead=0;swimlaneBody=0;strokeColor=inherit;top=0;left=0;bottom=0;right=0;collapsible=0;dropTarget=0;fillColor=none;points=[[0,0.5],[1,0.5]];portConstraint=eastwest;fontSize=16;" parent="uwt7Ybb9qySLHsRS9HzB-69" vertex="1">
          <mxGeometry y="120" width="160" height="40" as="geometry" />
        </mxCell>
        <mxCell id="uwt7Ybb9qySLHsRS9HzB-79" value="Î“" style="shape=partialRectangle;html=1;whiteSpace=wrap;connectable=0;strokeColor=inherit;overflow=hidden;fillColor=none;top=0;left=0;bottom=0;right=0;pointerEvents=1;fontSize=16;" parent="uwt7Ybb9qySLHsRS9HzB-78" vertex="1">
          <mxGeometry width="40" height="40" as="geometry">
            <mxRectangle width="40" height="40" as="alternateBounds" />
          </mxGeometry>
        </mxCell>
        <mxCell id="uwt7Ybb9qySLHsRS9HzB-80" value="(2, 4)" style="shape=partialRectangle;html=1;whiteSpace=wrap;connectable=0;strokeColor=inherit;overflow=hidden;fillColor=none;top=0;left=0;bottom=0;right=0;pointerEvents=1;fontSize=16;" parent="uwt7Ybb9qySLHsRS9HzB-78" vertex="1">
          <mxGeometry x="40" width="80" height="40" as="geometry">
            <mxRectangle width="80" height="40" as="alternateBounds" />
          </mxGeometry>
        </mxCell>
        <mxCell id="uwt7Ybb9qySLHsRS9HzB-81" value="0" style="shape=partialRectangle;html=1;whiteSpace=wrap;connectable=0;strokeColor=inherit;overflow=hidden;fillColor=none;top=0;left=0;bottom=0;right=0;pointerEvents=1;fontSize=16;" parent="uwt7Ybb9qySLHsRS9HzB-78" vertex="1">
          <mxGeometry x="120" width="40" height="40" as="geometry">
            <mxRectangle width="40" height="40" as="alternateBounds" />
          </mxGeometry>
        </mxCell>
        <mxCell id="uwt7Ybb9qySLHsRS9HzB-82" style="shape=tableRow;horizontal=0;startSize=0;swimlaneHead=0;swimlaneBody=0;strokeColor=inherit;top=0;left=0;bottom=0;right=0;collapsible=0;dropTarget=0;fillColor=none;points=[[0,0.5],[1,0.5]];portConstraint=eastwest;fontSize=16;" parent="uwt7Ybb9qySLHsRS9HzB-69" vertex="1">
          <mxGeometry y="160" width="160" height="39" as="geometry" />
        </mxCell>
        <mxCell id="uwt7Ybb9qySLHsRS9HzB-83" value="Î”" style="shape=partialRectangle;html=1;whiteSpace=wrap;connectable=0;strokeColor=inherit;overflow=hidden;fillColor=none;top=0;left=0;bottom=0;right=0;pointerEvents=1;fontSize=16;" parent="uwt7Ybb9qySLHsRS9HzB-82" vertex="1">
          <mxGeometry width="40" height="39" as="geometry">
            <mxRectangle width="40" height="39" as="alternateBounds" />
          </mxGeometry>
        </mxCell>
        <mxCell id="uwt7Ybb9qySLHsRS9HzB-84" value="(4, 7)" style="shape=partialRectangle;html=1;whiteSpace=wrap;connectable=0;strokeColor=inherit;overflow=hidden;fillColor=none;top=0;left=0;bottom=0;right=0;pointerEvents=1;fontSize=16;" parent="uwt7Ybb9qySLHsRS9HzB-82" vertex="1">
          <mxGeometry x="40" width="80" height="39" as="geometry">
            <mxRectangle width="80" height="39" as="alternateBounds" />
          </mxGeometry>
        </mxCell>
        <mxCell id="uwt7Ybb9qySLHsRS9HzB-85" value="3" style="shape=partialRectangle;html=1;whiteSpace=wrap;connectable=0;strokeColor=inherit;overflow=hidden;fillColor=none;top=0;left=0;bottom=0;right=0;pointerEvents=1;fontSize=16;" parent="uwt7Ybb9qySLHsRS9HzB-82" vertex="1">
          <mxGeometry x="120" width="40" height="39" as="geometry">
            <mxRectangle width="40" height="39" as="alternateBounds" />
          </mxGeometry>
        </mxCell>
        <mxCell id="uwt7Ybb9qySLHsRS9HzB-86" style="shape=tableRow;horizontal=0;startSize=0;swimlaneHead=0;swimlaneBody=0;strokeColor=inherit;top=0;left=0;bottom=0;right=0;collapsible=0;dropTarget=0;fillColor=none;points=[[0,0.5],[1,0.5]];portConstraint=eastwest;fontSize=16;" parent="uwt7Ybb9qySLHsRS9HzB-69" vertex="1">
          <mxGeometry y="199" width="160" height="41" as="geometry" />
        </mxCell>
        <mxCell id="uwt7Ybb9qySLHsRS9HzB-87" value="Î•" style="shape=partialRectangle;html=1;whiteSpace=wrap;connectable=0;strokeColor=inherit;overflow=hidden;fillColor=none;top=0;left=0;bottom=0;right=0;pointerEvents=1;fontSize=16;" parent="uwt7Ybb9qySLHsRS9HzB-86" vertex="1">
          <mxGeometry width="40" height="41" as="geometry">
            <mxRectangle width="40" height="41" as="alternateBounds" />
          </mxGeometry>
        </mxCell>
        <mxCell id="uwt7Ybb9qySLHsRS9HzB-88" value="(2, 8)" style="shape=partialRectangle;html=1;whiteSpace=wrap;connectable=0;strokeColor=inherit;overflow=hidden;fillColor=none;top=0;left=0;bottom=0;right=0;pointerEvents=1;fontSize=16;" parent="uwt7Ybb9qySLHsRS9HzB-86" vertex="1">
          <mxGeometry x="40" width="80" height="41" as="geometry">
            <mxRectangle width="80" height="41" as="alternateBounds" />
          </mxGeometry>
        </mxCell>
        <mxCell id="uwt7Ybb9qySLHsRS9HzB-89" value="8" style="shape=partialRectangle;html=1;whiteSpace=wrap;connectable=0;strokeColor=inherit;overflow=hidden;fillColor=none;top=0;left=0;bottom=0;right=0;pointerEvents=1;fontSize=16;" parent="uwt7Ybb9qySLHsRS9HzB-86" vertex="1">
          <mxGeometry x="120" width="40" height="41" as="geometry">
            <mxRectangle width="40" height="41" as="alternateBounds" />
          </mxGeometry>
        </mxCell>
        <mxCell id="uwt7Ybb9qySLHsRS9HzB-90" style="shape=tableRow;horizontal=0;startSize=0;swimlaneHead=0;swimlaneBody=0;strokeColor=inherit;top=0;left=0;bottom=0;right=0;collapsible=0;dropTarget=0;fillColor=none;points=[[0,0.5],[1,0.5]];portConstraint=eastwest;fontSize=16;" parent="uwt7Ybb9qySLHsRS9HzB-69" vertex="1">
          <mxGeometry y="240" width="160" height="40" as="geometry" />
        </mxCell>
        <mxCell id="uwt7Ybb9qySLHsRS9HzB-91" value="Î–" style="shape=partialRectangle;html=1;whiteSpace=wrap;connectable=0;strokeColor=inherit;overflow=hidden;fillColor=none;top=0;left=0;bottom=0;right=0;pointerEvents=1;fontSize=16;" parent="uwt7Ybb9qySLHsRS9HzB-90" vertex="1">
          <mxGeometry width="40" height="40" as="geometry">
            <mxRectangle width="40" height="40" as="alternateBounds" />
          </mxGeometry>
        </mxCell>
        <mxCell id="uwt7Ybb9qySLHsRS9HzB-92" value="(3, 5)" style="shape=partialRectangle;html=1;whiteSpace=wrap;connectable=0;strokeColor=inherit;overflow=hidden;fillColor=none;top=0;left=0;bottom=0;right=0;pointerEvents=1;fontSize=16;" parent="uwt7Ybb9qySLHsRS9HzB-90" vertex="1">
          <mxGeometry x="40" width="80" height="40" as="geometry">
            <mxRectangle width="80" height="40" as="alternateBounds" />
          </mxGeometry>
        </mxCell>
        <mxCell id="uwt7Ybb9qySLHsRS9HzB-93" value="2" style="shape=partialRectangle;html=1;whiteSpace=wrap;connectable=0;strokeColor=inherit;overflow=hidden;fillColor=none;top=0;left=0;bottom=0;right=0;pointerEvents=1;fontSize=16;" parent="uwt7Ybb9qySLHsRS9HzB-90" vertex="1">
          <mxGeometry x="120" width="40" height="40" as="geometry">
            <mxRectangle width="40" height="40" as="alternateBounds" />
          </mxGeometry>
        </mxCell>
        <mxCell id="uwt7Ybb9qySLHsRS9HzB-94" style="shape=tableRow;horizontal=0;startSize=0;swimlaneHead=0;swimlaneBody=0;strokeColor=inherit;top=0;left=0;bottom=0;right=0;collapsible=0;dropTarget=0;fillColor=none;points=[[0,0.5],[1,0.5]];portConstraint=eastwest;fontSize=16;" parent="uwt7Ybb9qySLHsRS9HzB-69" vertex="1">
          <mxGeometry y="280" width="160" height="40" as="geometry" />
        </mxCell>
        <mxCell id="uwt7Ybb9qySLHsRS9HzB-95" value="Î—" style="shape=partialRectangle;html=1;whiteSpace=wrap;connectable=0;strokeColor=inherit;overflow=hidden;fillColor=none;top=0;left=0;bottom=0;right=0;pointerEvents=1;fontSize=16;" parent="uwt7Ybb9qySLHsRS9HzB-94" vertex="1">
          <mxGeometry width="40" height="40" as="geometry">
            <mxRectangle width="40" height="40" as="alternateBounds" />
          </mxGeometry>
        </mxCell>
        <mxCell id="uwt7Ybb9qySLHsRS9HzB-96" value="(4, 8)" style="shape=partialRectangle;html=1;whiteSpace=wrap;connectable=0;strokeColor=inherit;overflow=hidden;fillColor=none;top=0;left=0;bottom=0;right=0;pointerEvents=1;fontSize=16;" parent="uwt7Ybb9qySLHsRS9HzB-94" vertex="1">
          <mxGeometry x="40" width="80" height="40" as="geometry">
            <mxRectangle width="80" height="40" as="alternateBounds" />
          </mxGeometry>
        </mxCell>
        <mxCell id="uwt7Ybb9qySLHsRS9HzB-97" value="0" style="shape=partialRectangle;html=1;whiteSpace=wrap;connectable=0;strokeColor=inherit;overflow=hidden;fillColor=none;top=0;left=0;bottom=0;right=0;pointerEvents=1;fontSize=16;" parent="uwt7Ybb9qySLHsRS9HzB-94" vertex="1">
          <mxGeometry x="120" width="40" height="40" as="geometry">
            <mxRectangle width="40" height="40" as="alternateBounds" />
          </mxGeometry>
        </mxCell>
        <mxCell id="uwt7Ybb9qySLHsRS9HzB-98" style="shape=tableRow;horizontal=0;startSize=0;swimlaneHead=0;swimlaneBody=0;strokeColor=inherit;top=0;left=0;bottom=0;right=0;collapsible=0;dropTarget=0;fillColor=none;points=[[0,0.5],[1,0.5]];portConstraint=eastwest;fontSize=16;" parent="uwt7Ybb9qySLHsRS9HzB-69" vertex="1">
          <mxGeometry y="320" width="160" height="40" as="geometry" />
        </mxCell>
        <mxCell id="uwt7Ybb9qySLHsRS9HzB-99" value="Î˜" style="shape=partialRectangle;html=1;whiteSpace=wrap;connectable=0;strokeColor=inherit;overflow=hidden;fillColor=none;top=0;left=0;bottom=0;right=0;pointerEvents=1;fontSize=16;" parent="uwt7Ybb9qySLHsRS9HzB-98" vertex="1">
          <mxGeometry width="40" height="40" as="geometry">
            <mxRectangle width="40" height="40" as="alternateBounds" />
          </mxGeometry>
        </mxCell>
        <mxCell id="uwt7Ybb9qySLHsRS9HzB-100" value="(4, 5)" style="shape=partialRectangle;html=1;whiteSpace=wrap;connectable=0;strokeColor=inherit;overflow=hidden;fillColor=none;top=0;left=0;bottom=0;right=0;pointerEvents=1;fontSize=16;" parent="uwt7Ybb9qySLHsRS9HzB-98" vertex="1">
          <mxGeometry x="40" width="80" height="40" as="geometry">
            <mxRectangle width="80" height="40" as="alternateBounds" />
          </mxGeometry>
        </mxCell>
        <mxCell id="uwt7Ybb9qySLHsRS9HzB-101" value="0" style="shape=partialRectangle;html=1;whiteSpace=wrap;connectable=0;strokeColor=inherit;overflow=hidden;fillColor=none;top=0;left=0;bottom=0;right=0;pointerEvents=1;fontSize=16;" parent="uwt7Ybb9qySLHsRS9HzB-98" vertex="1">
          <mxGeometry x="120" width="40" height="40" as="geometry">
            <mxRectangle width="40" height="40" as="alternateBounds" />
          </mxGeometry>
        </mxCell>
        <mxCell id="uwt7Ybb9qySLHsRS9HzB-102" style="shape=tableRow;horizontal=0;startSize=0;swimlaneHead=0;swimlaneBody=0;strokeColor=inherit;top=0;left=0;bottom=0;right=0;collapsible=0;dropTarget=0;fillColor=none;points=[[0,0.5],[1,0.5]];portConstraint=eastwest;fontSize=16;" parent="uwt7Ybb9qySLHsRS9HzB-69" vertex="1">
          <mxGeometry y="360" width="160" height="40" as="geometry" />
        </mxCell>
        <mxCell id="uwt7Ybb9qySLHsRS9HzB-103" value="Î™" style="shape=partialRectangle;html=1;whiteSpace=wrap;connectable=0;strokeColor=inherit;overflow=hidden;fillColor=none;top=0;left=0;bottom=0;right=0;pointerEvents=1;fontSize=16;" parent="uwt7Ybb9qySLHsRS9HzB-102" vertex="1">
          <mxGeometry width="40" height="40" as="geometry">
            <mxRectangle width="40" height="40" as="alternateBounds" />
          </mxGeometry>
        </mxCell>
        <mxCell id="uwt7Ybb9qySLHsRS9HzB-104" value="(5, 6)" style="shape=partialRectangle;html=1;whiteSpace=wrap;connectable=0;strokeColor=inherit;overflow=hidden;fillColor=none;top=0;left=0;bottom=0;right=0;pointerEvents=1;fontSize=16;" parent="uwt7Ybb9qySLHsRS9HzB-102" vertex="1">
          <mxGeometry x="40" width="80" height="40" as="geometry">
            <mxRectangle width="80" height="40" as="alternateBounds" />
          </mxGeometry>
        </mxCell>
        <mxCell id="uwt7Ybb9qySLHsRS9HzB-105" value="0" style="shape=partialRectangle;html=1;whiteSpace=wrap;connectable=0;strokeColor=inherit;overflow=hidden;fillColor=none;top=0;left=0;bottom=0;right=0;pointerEvents=1;fontSize=16;" parent="uwt7Ybb9qySLHsRS9HzB-102" vertex="1">
          <mxGeometry x="120" width="40" height="40" as="geometry">
            <mxRectangle width="40" height="40" as="alternateBounds" />
          </mxGeometry>
        </mxCell>
        <mxCell id="uwt7Ybb9qySLHsRS9HzB-106" style="shape=tableRow;horizontal=0;startSize=0;swimlaneHead=0;swimlaneBody=0;strokeColor=inherit;top=0;left=0;bottom=0;right=0;collapsible=0;dropTarget=0;fillColor=none;points=[[0,0.5],[1,0.5]];portConstraint=eastwest;fontSize=16;" parent="uwt7Ybb9qySLHsRS9HzB-69" vertex="1">
          <mxGeometry y="400" width="160" height="40" as="geometry" />
        </mxCell>
        <mxCell id="uwt7Ybb9qySLHsRS9HzB-107" value="Îš" style="shape=partialRectangle;html=1;whiteSpace=wrap;connectable=0;strokeColor=inherit;overflow=hidden;fillColor=none;top=0;left=0;bottom=0;right=0;pointerEvents=1;fontSize=16;" parent="uwt7Ybb9qySLHsRS9HzB-106" vertex="1">
          <mxGeometry width="40" height="40" as="geometry">
            <mxRectangle width="40" height="40" as="alternateBounds" />
          </mxGeometry>
        </mxCell>
        <mxCell id="uwt7Ybb9qySLHsRS9HzB-108" value="(6, 8)" style="shape=partialRectangle;html=1;whiteSpace=wrap;connectable=0;strokeColor=inherit;overflow=hidden;fillColor=none;top=0;left=0;bottom=0;right=0;pointerEvents=1;fontSize=16;" parent="uwt7Ybb9qySLHsRS9HzB-106" vertex="1">
          <mxGeometry x="40" width="80" height="40" as="geometry">
            <mxRectangle width="80" height="40" as="alternateBounds" />
          </mxGeometry>
        </mxCell>
        <mxCell id="uwt7Ybb9qySLHsRS9HzB-109" value="0" style="shape=partialRectangle;html=1;whiteSpace=wrap;connectable=0;strokeColor=inherit;overflow=hidden;fillColor=none;top=0;left=0;bottom=0;right=0;pointerEvents=1;fontSize=16;" parent="uwt7Ybb9qySLHsRS9HzB-106" vertex="1">
          <mxGeometry x="120" width="40" height="40" as="geometry">
            <mxRectangle width="40" height="40" as="alternateBounds" />
          </mxGeometry>
        </mxCell>
      </root>
    </mxGraphModel>
  </diagram>
</mxfile>
